<?xml version="1.0" encoding="utf-8"?>
<!-- Generator: Adobe Illustrator 19.0.0, SVG Export Plug-In . SVG Version: 6.00 Build 0)  -->
<svg version="1.1" id="Layer_1" xmlns="http://www.w3.org/2000/svg" xmlns:xlink="http://www.w3.org/1999/xlink" x="0px" y="0px"
	 viewBox="0 0 512 512" style="enable-background:new 0 0 512 512;" xml:space="preserve">
<g id="XMLID_5_">
	<path id="XMLID_9_" d="M464.3,232.6c-10.4-97.2-87.6-174.4-184.8-184.8V0h-46.9v47.7C135.4,59,59,135.4,47.7,232.6H0v46.9h47.7
		c10.4,97.2,87.6,174.4,184.8,184.8V512h46.9v-47.7C376.6,453,453,376.6,464.3,279.4H512v-46.9H464.3z M256,419.1
		c-90.3,0-163.1-72.9-163.1-163.1S165.7,92.9,256,92.9S419.1,165.7,419.1,256S346.3,419.1,256,419.1z"/>
</g>
</svg>
