<?xml version="1.0" standalone="no"?>
<!DOCTYPE svg PUBLIC "-//W3C//DTD SVG 20010904//EN"
 "http://www.w3.org/TR/2001/REC-SVG-20010904/DTD/svg10.dtd">
<svg version="1.0" xmlns="http://www.w3.org/2000/svg"
 width="874.000000pt" height="1280.000000pt" viewBox="0 0 874.000000 1280.000000"
 preserveAspectRatio="xMidYMid meet">
<metadata>
Created by potrace 1.15, written by Peter Selinger 2001-2017
</metadata>
<g transform="translate(0.000000,1280.000000) scale(0.100000,-0.100000)"
fill="#000000" stroke="none">
<path d="M6440 12787 c-59 -29 -242 -454 -361 -834 -77 -246 -129 -448 -339
-1303 -80 -325 -150 -580 -210 -767 -22 -66 -76 -253 -121 -415 -74 -272 -242
-884 -309 -1128 -16 -58 -92 -337 -170 -620 -78 -283 -154 -562 -170 -620 -16
-58 -92 -337 -170 -620 -78 -283 -154 -562 -170 -620 -202 -739 -282 -1028
-288 -1043 -6 -16 -15 -9 -57 43 -166 212 -432 423 -687 544 -307 147 -587
204 -956 193 -445 -12 -852 -143 -1242 -398 -624 -408 -1041 -1068 -1134
-1794 -8 -66 -23 -181 -33 -255 -26 -198 -24 -555 5 -748 82 -547 301 -1037
656 -1467 83 -101 278 -296 376 -377 459 -377 1004 -577 1515 -554 506 22 932
222 1341 630 298 298 526 650 728 1123 194 456 330 924 570 1958 168 726 238
997 346 1350 27 88 115 412 195 720 81 308 209 801 286 1095 205 781 458 1748
619 2365 77 297 143 547 146 555 5 14 103 -274 198 -582 345 -1114 423 -1869
260 -2511 -101 -400 -347 -784 -631 -985 -151 -107 -272 -323 -314 -562 -16
-91 -14 -310 4 -400 49 -244 167 -424 331 -505 172 -85 341 -68 559 58 318
182 575 416 809 737 736 1012 930 2610 463 3815 -98 250 -325 762 -538 1210
-208 439 -1207 2406 -1241 2444 -8 9 -28 45 -46 81 -87 174 -146 224 -220 187z"/>
</g>
</svg>
