<?xml version="1.0" encoding="iso-8859-1"?>
<!-- Generator: Adobe Illustrator 18.0.0, SVG Export Plug-In . SVG Version: 6.00 Build 0)  -->
<!DOCTYPE svg PUBLIC "-//W3C//DTD SVG 1.1//EN" "http://www.w3.org/Graphics/SVG/1.1/DTD/svg11.dtd">
<svg version="1.1" id="Capa_1" xmlns="http://www.w3.org/2000/svg" xmlns:xlink="http://www.w3.org/1999/xlink" x="0px" y="0px"
	 viewBox="0 0 297 297" style="enable-background:new 0 0 297 297;" xml:space="preserve">
<path d="M282.82,107.559h-25.792V10.025c0-4.056-2.443-7.711-6.19-9.261c-3.745-1.555-8.059-0.693-10.925,2.177
	C195.46,47.434,157.039,68.643,132.635,78.6C106.33,89.333,90.261,89.635,90.159,89.637H14.18c-5.536,0-10.023,4.488-10.023,10.024
	v89.631c0,5.536,4.487,10.023,10.023,10.023h10.2l37.887,91.497c1.551,3.746,5.206,6.189,9.261,6.189h55.538
	c0.006-0.001,0.012-0.001,0.02,0c5.536,0,10.023-4.488,10.023-10.023c0-1.588-0.37-3.09-1.025-4.424l-33.809-81.646
	c22.4,4.443,73.884,21.285,137.641,85.1c1.917,1.921,4.483,2.939,7.094,2.939c0.055,0,0.109,0,0.164,0
	c5.468-0.079,9.877-4.536,9.877-10.023c0-0.214-0.006-0.428-0.02-0.639l-0.002-96.896h25.792c5.536,0,10.023-4.488,10.023-10.024
	v-53.779C292.844,112.048,288.356,107.559,282.82,107.559z M24.204,109.683h55.932v69.584H24.204V109.683z M78.226,276.952
	l-31.139-75.196h33.839l31.138,75.196H78.226z M100.183,180.201v-71.452c20.889-3.123,72.28-16.674,136.797-75.301v84.121v0.015
	v53.779c0,0.008,0,0.017,0,0.025l0.002,84.111C172.466,196.876,121.072,183.326,100.183,180.201z M272.796,161.34h-15.768v-33.732
	h15.768V161.34z"/>
<g>
</g>
<g>
</g>
<g>
</g>
<g>
</g>
<g>
</g>
<g>
</g>
<g>
</g>
<g>
</g>
<g>
</g>
<g>
</g>
<g>
</g>
<g>
</g>
<g>
</g>
<g>
</g>
<g>
</g>
</svg>
